<svg version="1.1" id="Layer_1" xmlns="http://www.w3.org/2000/svg" xmlns:xlink="http://www.w3.org/1999/xlink" x="0px" y="0px"
	 width="100%" viewBox="0 0 216 216" enable-background="new 0 0 216 216" xml:space="preserve">
<path fill="#A19FA8" opacity="1.000000" stroke="none" 
	d="
M1.000000,81.000000 
	C1.000000,54.000000 1.000000,27.500004 1.000000,1.000004 
	C72.999992,1.000002 144.999985,1.000002 217.000000,1.000001 
	C217.000000,72.999992 217.000000,144.999985 217.000000,216.999969 
	C145.000015,216.999985 73.000031,216.999985 1.000022,217.000000 
	C1.000000,171.833328 1.000000,126.666664 1.000000,81.000000 
M195.760300,195.812485 
	C203.167114,195.755295 203.176117,195.755295 203.176468,188.441223 
	C203.179092,134.639099 203.179993,80.836967 203.175156,27.034842 
	C203.174500,19.834204 203.158142,19.816977 196.059097,19.816315 
	C142.090393,19.811285 88.121696,19.813442 34.153000,19.814198 
	C33.153618,19.814213 32.151024,19.878624 31.155464,19.819592 
	C28.427319,19.657825 27.130407,20.891348 27.204515,23.639307 
	C27.244883,25.136173 27.163919,26.636312 26.272217,28.263008 
	C23.978733,28.263008 21.685251,28.263008 19.192327,28.263008 
	C19.192327,87.289925 19.192327,145.620148 19.192327,203.974106 
	C77.777443,203.974106 135.877304,203.974106 194.333206,203.974106 
	C194.519730,201.088394 194.688980,198.469925 195.760300,195.812485 
z"/>
<path fill="#052F53" opacity="1.000000" stroke="none" 
	d="
M194.858246,195.851456 
	C194.688980,198.469925 194.519730,201.088394 194.333206,203.974106 
	C135.877304,203.974106 77.777443,203.974106 19.192327,203.974106 
	C19.192327,145.620148 19.192327,87.289925 19.192327,28.263008 
	C21.685251,28.263008 23.978733,28.263008 27.162945,28.235416 
	C81.180069,28.194149 134.306458,28.179264 187.432846,28.168186 
	C194.815994,28.166647 194.822174,28.175333 194.823929,35.475811 
	C194.836853,88.934357 194.847122,142.392914 194.858246,195.851456 
M69.509453,137.821259 
	C76.724533,130.867371 84.058792,124.028793 91.022728,116.831886 
	C92.036011,115.784706 92.084717,112.087639 91.147858,111.282135 
	C89.823586,110.143517 86.907845,109.840515 85.140984,110.478348 
	C82.704216,111.358017 80.704453,113.448196 77.355400,115.855019 
	C79.312164,108.790810 81.125244,103.273720 82.326813,97.626526 
	C83.601097,91.637589 85.361183,87.687889 92.829811,86.615334 
	C102.484543,85.228836 108.382225,76.106651 108.378868,66.119209 
	C108.375679,56.643620 101.808815,48.178738 92.416122,45.542770 
	C83.520416,43.046276 72.991676,47.291386 68.167542,55.319614 
	C63.443424,63.181396 64.588776,73.957588 70.890465,80.864059 
	C71.943092,82.017708 73.023582,83.145935 73.335007,83.478462 
	C70.731842,86.474388 68.606453,88.920441 66.380684,91.482025 
	C60.716240,89.376831 60.170708,89.676216 57.464687,96.807426 
	C51.022720,94.174263 50.051975,94.648735 48.127171,101.382462 
	C47.852829,102.342216 47.599819,103.308060 47.335022,104.270554 
	C44.166462,115.787712 40.997536,127.304779 37.703789,139.275879 
	C46.880310,141.733307 55.671429,144.087479 64.462494,146.441864 
	C65.104828,146.613876 65.899506,147.109604 66.356857,146.892761 
	C67.289375,146.450623 68.040047,145.624924 69.199532,144.532867 
	C69.325340,144.018784 69.451149,143.504715 69.870422,142.392349 
	C70.033180,141.525711 70.195938,140.659073 70.715897,139.359543 
	C70.477707,138.975983 70.239517,138.592438 69.509453,137.821259 
M171.989792,170.000168 
	C169.676086,160.665176 167.452393,151.306656 165.018707,142.003052 
	C163.241745,135.209976 162.286957,134.779449 155.945999,136.750931 
	C154.774200,134.929321 154.009491,132.395828 152.390625,131.600113 
	C150.754166,130.795761 148.271606,131.712830 145.750595,131.907364 
	C145.484573,127.230591 142.344406,125.205673 136.807220,125.891716 
	C138.715256,124.219971 140.017807,123.201019 141.179733,122.041176 
	C149.884384,113.352165 149.601868,99.049438 140.590637,90.758629 
	C131.135483,82.059402 116.555145,82.896667 108.624573,92.637802 
	C103.064758,99.466919 102.096817,107.176193 105.266594,115.171181 
	C108.671646,123.759590 115.698608,127.724251 124.604095,128.848862 
	C125.947563,129.018524 128.155624,129.398376 128.394913,130.168457 
	C130.916260,138.282776 133.118713,146.496155 135.409210,154.682190 
	C133.153976,154.312180 131.932983,153.507904 130.784775,152.610489 
	C128.081192,150.497421 125.172348,148.090149 122.070938,151.455124 
	C118.806976,154.996490 122.118080,157.323105 124.252090,159.856796 
	C131.698563,168.697922 143.072998,174.566010 144.715698,188.123047 
	C154.909348,185.256104 164.460312,182.569901 174.545563,179.872131 
	C174.666168,179.585983 174.786789,179.299850 175.011276,178.242569 
	C174.538544,176.498291 174.065811,174.754013 173.587204,172.427612 
	C173.079575,171.895447 172.571945,171.363281 171.989792,170.000168 
z"/>
<path fill="#56697F" opacity="1.000000" stroke="none" 
	d="
M195.309265,195.831970 
	C194.847122,142.392914 194.836853,88.934357 194.823929,35.475811 
	C194.822174,28.175333 194.815994,28.166647 187.432846,28.168186 
	C134.306458,28.179264 81.180069,28.194149 27.595676,28.171402 
	C27.163919,26.636312 27.244883,25.136173 27.204515,23.639307 
	C27.130407,20.891348 28.427319,19.657825 31.155464,19.819592 
	C32.151024,19.878624 33.153618,19.814213 34.153000,19.814198 
	C88.121696,19.813442 142.090393,19.811285 196.059097,19.816315 
	C203.158142,19.816977 203.174500,19.834204 203.175156,27.034842 
	C203.179993,80.836967 203.179092,134.639099 203.176468,188.441223 
	C203.176117,195.755295 203.167114,195.755295 195.309265,195.831970 
z"/>
<path fill="#BCB7D0" opacity="1.000000" stroke="none" 
	d="
M173.593079,173.009750 
	C174.065811,174.754013 174.538544,176.498291 174.795273,178.757477 
	C174.369370,179.457062 174.180038,179.660843 174.011261,179.883713 
	C164.460312,182.569901 154.909348,185.256104 144.715698,188.123047 
	C143.072998,174.566010 131.698563,168.697922 124.252090,159.856796 
	C122.118080,157.323105 118.806976,154.996490 122.070938,151.455124 
	C125.172348,148.090149 128.081192,150.497421 130.784775,152.610489 
	C131.932983,153.507904 133.153976,154.312180 135.409210,154.682190 
	C133.118713,146.496155 130.916260,138.282776 128.394913,130.168457 
	C128.155624,129.398376 125.947563,129.018524 124.604095,128.848862 
	C115.698608,127.724251 108.671646,123.759590 105.266594,115.171181 
	C102.096817,107.176193 103.064758,99.466919 108.624573,92.637802 
	C116.555145,82.896667 131.135483,82.059402 140.590637,90.758629 
	C149.601868,99.049438 149.884384,113.352165 141.179733,122.041176 
	C140.017807,123.201019 138.715256,124.219971 136.807220,125.891716 
	C142.344406,125.205673 145.484573,127.230591 145.750595,131.907364 
	C148.271606,131.712830 150.754166,130.795761 152.390625,131.600113 
	C154.009491,132.395828 154.774200,134.929321 155.945999,136.750931 
	C162.286957,134.779449 163.241745,135.209976 165.018707,142.003052 
	C167.452393,151.306656 169.676086,160.665176 172.081863,170.691803 
	C172.646988,171.925537 173.120041,172.467636 173.593079,173.009750 
M117.074417,113.204704 
	C119.304039,114.807373 121.533661,116.410042 123.160423,117.579369 
	C124.640450,114.703094 125.331787,111.574036 126.581512,111.332352 
	C128.667984,110.928879 131.111526,112.371857 133.798203,113.151726 
	C137.319321,109.107140 137.179993,103.283966 132.887085,99.344872 
	C129.399979,96.145157 123.349327,95.687340 119.480415,98.330460 
	C115.195755,101.257607 114.158653,106.574326 117.074417,113.204704 
M146.090179,177.096436 
	C145.915985,177.116287 145.741791,177.136124 145.567596,177.155960 
	C145.742279,177.209045 145.916977,177.262131 146.090179,177.096436 
M160.897995,173.489944 
	C160.897995,173.489944 161.085022,173.557236 161.085022,173.557236 
	C161.085022,173.557236 160.967758,173.410065 160.897995,173.489944 
M156.946121,174.577011 
	C156.946121,174.577011 157.109116,174.466110 157.109116,174.466110 
	C157.109116,174.466110 156.904694,174.475739 156.946121,174.577011 
z"/>
<path fill="#BBB7CF" opacity="1.000000" stroke="none" 
	d="
M70.358696,139.792435 
	C70.195938,140.659073 70.033180,141.525711 69.523148,142.778671 
	C69.072464,143.762405 68.969048,144.359833 68.865639,144.957245 
	C68.040047,145.624924 67.289375,146.450623 66.356857,146.892761 
	C65.899506,147.109604 65.104828,146.613876 64.462494,146.441864 
	C55.671429,144.087479 46.880310,141.733307 37.703789,139.275879 
	C40.997536,127.304779 44.166462,115.787712 47.335022,104.270554 
	C47.599819,103.308060 47.852829,102.342216 48.127171,101.382462 
	C50.051975,94.648735 51.022720,94.174263 57.464687,96.807426 
	C60.170708,89.676216 60.716240,89.376831 66.380684,91.482025 
	C68.606453,88.920441 70.731842,86.474388 73.335007,83.478462 
	C73.023582,83.145935 71.943092,82.017708 70.890465,80.864059 
	C64.588776,73.957588 63.443424,63.181396 68.167542,55.319614 
	C72.991676,47.291386 83.520416,43.046276 92.416122,45.542770 
	C101.808815,48.178738 108.375679,56.643620 108.378868,66.119209 
	C108.382225,76.106651 102.484543,85.228836 92.829811,86.615334 
	C85.361183,87.687889 83.601097,91.637589 82.326813,97.626526 
	C81.125244,103.273720 79.312164,108.790810 77.355400,115.855019 
	C80.704453,113.448196 82.704216,111.358017 85.140984,110.478348 
	C86.907845,109.840515 89.823586,110.143517 91.147858,111.282135 
	C92.084717,112.087639 92.036011,115.784706 91.022728,116.831886 
	C84.058792,124.028793 76.724533,130.867371 69.835693,138.412994 
	C70.227524,139.267303 70.293114,139.529877 70.358696,139.792435 
M82.643257,56.762791 
	C74.941116,61.426876 73.835518,69.009682 79.522079,73.424217 
	C81.674797,72.218307 84.051651,69.920082 85.266068,70.423897 
	C87.294914,71.265579 88.580795,73.898140 90.349815,75.977058 
	C96.049614,73.780670 98.454948,69.434875 96.771973,63.478916 
	C95.129478,57.666214 90.455246,55.218464 82.643257,56.762791 
M44.921894,130.683563 
	C44.958748,130.889221 44.995598,131.094864 45.032448,131.300522 
	C45.081127,131.097794 45.129803,130.895081 44.921894,130.683563 
M55.851830,134.279449 
	C55.972744,134.112244 56.093662,133.945038 56.214584,133.777832 
	C56.037846,133.883438 55.861103,133.989044 55.851830,134.279449 
M61.438614,134.727402 
	C61.259922,134.757919 61.081230,134.788437 60.902538,134.818970 
	C61.085545,134.863647 61.268547,134.908325 61.438614,134.727402 
M52.897446,133.489899 
	C52.897446,133.489899 53.084869,133.557281 53.084869,133.557281 
	C53.084869,133.557281 52.967342,133.409882 52.897446,133.489899 
M67.499374,137.529724 
	C67.499374,137.529724 67.482536,137.485641 67.499374,137.529724 
z"/>
<path fill="#B9B5CE" opacity="1.000000" stroke="none" 
	d="
M173.590149,172.718689 
	C173.120041,172.467636 172.646988,171.925537 172.119110,171.107285 
	C172.571945,171.363281 173.079575,171.895447 173.590149,172.718689 
z"/>
<path fill="#B8B5CD" opacity="1.000000" stroke="none" 
	d="
M69.032585,144.745056 
	C68.969048,144.359833 69.072464,143.762405 69.376419,143.077820 
	C69.451149,143.504715 69.325340,144.018784 69.032585,144.745056 
z"/>
<path fill="#B8B5CD" opacity="1.000000" stroke="none" 
	d="
M70.537292,139.575989 
	C70.293114,139.529877 70.227524,139.267303 70.081627,138.606812 
	C70.239517,138.592438 70.477707,138.975983 70.537292,139.575989 
z"/>
<path fill="#B9B5CE" opacity="1.000000" stroke="none" 
	d="
M174.278412,179.877930 
	C174.180038,179.660843 174.369370,179.457062 174.743347,179.143036 
	C174.786789,179.299850 174.666168,179.585983 174.278412,179.877930 
z"/>
<path fill="#0B3356" opacity="1.000000" stroke="none" 
	d="
M116.891930,112.870300 
	C114.158653,106.574326 115.195755,101.257607 119.480415,98.330460 
	C123.349327,95.687340 129.399979,96.145157 132.887085,99.344872 
	C137.179993,103.283966 137.319321,109.107140 133.798203,113.151726 
	C131.111526,112.371857 128.667984,110.928879 126.581512,111.332352 
	C125.331787,111.574036 124.640450,114.703094 123.160423,117.579369 
	C121.533661,116.410042 119.304039,114.807373 116.891930,112.870300 
z"/>
<path fill="#B9B5CE" opacity="1.000000" stroke="none" 
	d="
M146.090912,177.205841 
	C145.916977,177.262131 145.742279,177.209045 145.567596,177.155960 
	C145.741791,177.136124 145.915985,177.116287 146.090912,177.205841 
z"/>
<path fill="#B9B5CE" opacity="1.000000" stroke="none" 
	d="
M160.932877,173.450012 
	C160.967758,173.410065 161.085022,173.557236 161.085022,173.557236 
	C161.085022,173.557236 160.897995,173.489944 160.932877,173.450012 
z"/>
<path fill="#B9B5CE" opacity="1.000000" stroke="none" 
	d="
M156.925415,174.526367 
	C156.904694,174.475739 157.109116,174.466110 157.109116,174.466110 
	C157.109116,174.466110 156.946121,174.577011 156.925415,174.526367 
z"/>
<path fill="#0A3356" opacity="1.000000" stroke="none" 
	d="
M83.011314,56.614212 
	C90.455246,55.218464 95.129478,57.666214 96.771973,63.478916 
	C98.454948,69.434875 96.049614,73.780670 90.349815,75.977058 
	C88.580795,73.898140 87.294914,71.265579 85.266068,70.423897 
	C84.051651,69.920082 81.674797,72.218307 79.522079,73.424217 
	C73.835518,69.009682 74.941116,61.426876 83.011314,56.614212 
z"/>
<path fill="#B8B5CD" opacity="1.000000" stroke="none" 
	d="
M45.050186,130.687958 
	C45.129803,130.895081 45.081127,131.097794 45.032448,131.300522 
	C44.995598,131.094864 44.958748,130.889221 45.050186,130.687958 
z"/>
<path fill="#B8B5CD" opacity="1.000000" stroke="none" 
	d="
M55.768097,134.187042 
	C55.861103,133.989044 56.037846,133.883438 56.214584,133.777832 
	C56.093662,133.945038 55.972744,134.112244 55.768097,134.187042 
z"/>
<path fill="#B8B5CD" opacity="1.000000" stroke="none" 
	d="
M61.445084,134.840210 
	C61.268547,134.908325 61.085545,134.863647 60.902538,134.818970 
	C61.081230,134.788437 61.259922,134.757919 61.445084,134.840210 
z"/>
<path fill="#B8B5CD" opacity="1.000000" stroke="none" 
	d="
M52.932396,133.449890 
	C52.967342,133.409882 53.084869,133.557281 53.084869,133.557281 
	C53.084869,133.557281 52.897446,133.489899 52.932396,133.449890 
z"/>
<path fill="#B8B5CD" opacity="1.000000" stroke="none" 
	d="
M67.490952,137.507690 
	C67.482536,137.485641 67.499374,137.529724 67.490952,137.507690 
z"/>
</svg>