<svg width="23" height="23" viewBox="0 0 23 23" fill="none" xmlns="http://www.w3.org/2000/svg">
<path fill-rule="evenodd" clip-rule="evenodd" d="M16.5175 10.3153L18.2081 8.6247L18.2081 8.62468C18.6755 8.15732 18.9092 7.92364 19.0454 7.67802C19.38 7.07465 19.38 6.34141 19.0454 5.73804C18.9092 5.49242 18.6755 5.25874 18.2081 4.79138L18.2081 4.79136L18.2081 4.79135C17.7407 4.32399 17.507 4.09031 17.2614 3.95409C16.6581 3.61947 15.9248 3.61947 15.3215 3.95409C15.0758 4.09031 14.8421 4.32399 14.3748 4.79137L12.6624 6.50378C13.5845 8.08677 14.9133 9.40538 16.5175 10.3153ZM11.2079 7.95826L4.68948 14.4767C4.26442 14.9017 4.05189 15.1142 3.91216 15.3753C3.77242 15.6364 3.71348 15.9312 3.59559 16.5206L3.02186 19.3893C2.95534 19.7219 2.92208 19.8882 3.01668 19.9828C3.11129 20.0774 3.2776 20.0441 3.61021 19.9776L6.47886 19.4039C7.06831 19.286 7.36303 19.227 7.62413 19.0873C7.88522 18.9476 8.09775 18.7351 8.5228 18.31L8.52281 18.31L8.52282 18.31L15.0593 11.7736C13.5061 10.7991 12.1917 9.49379 11.2079 7.95826Z" fill="white"/>
</svg>
