<svg width="97" height="109" viewBox="0 0 97 109" fill="none" xmlns="http://www.w3.org/2000/svg">
<path d="M63 32V48.4062V64.4846C63 64.6976 63.068 64.9051 63.1942 65.0767L92.8301 105.408C93.3154 106.068 92.8438 107 92.0242 107H2.97576C2.15622 107 1.68464 106.068 2.16993 105.408L31.8058 65.0767C31.932 64.9051 32 64.6976 32 64.4846V32" stroke="#33363F" stroke-width="2" stroke-linejoin="round"/>
<path d="M80.3319 101.183L63.3001 80.3668C63.1101 80.1346 62.8261 80 62.5261 80H33.4739C33.1739 80 32.8899 80.1346 32.6999 80.3668L15.6681 101.183C15.401 101.51 15.6333 102 16.0551 102H79.9449C80.3667 102 80.599 101.51 80.3319 101.183Z" fill="#33363F"/>
<path d="M30 32H65" stroke="#33363F" stroke-width="2" stroke-linecap="round" stroke-linejoin="round"/>
</svg>
