<svg width="30" height="25" viewBox="0 0 30 25" fill="none" xmlns="http://www.w3.org/2000/svg">
<path d="M7.92398 10.3617C8.39685 6.81516 11.4221 4.1665 15 4.1665C18.5779 4.1665 21.6032 6.81516 22.076 10.3617L22.2217 11.4539C22.2347 11.552 22.2413 11.601 22.2483 11.6493C22.4288 12.8875 22.8972 14.066 23.6158 15.0902C23.6439 15.1302 23.6728 15.1703 23.7306 15.2506L24.4007 16.1813C25.0113 17.0294 25.3166 17.4534 25.2961 17.8075C25.2799 18.0882 25.1462 18.3491 24.9279 18.5263C24.6525 18.7498 24.13 18.7498 23.085 18.7498H6.915C5.87001 18.7498 5.34752 18.7498 5.07209 18.5263C4.85376 18.3491 4.72012 18.0882 4.7039 17.8075C4.68344 17.4534 4.98873 17.0294 5.59933 16.1813L6.26942 15.2506C6.32724 15.1703 6.35615 15.1302 6.38418 15.0902C7.10282 14.066 7.5712 12.8875 7.75169 11.6493C7.75873 11.601 7.76527 11.552 7.77835 11.4539L7.92398 10.3617Z" fill="#D9D9D9" stroke="#222222"/>
<path d="M11.3778 19.1728C11.5914 19.948 12.0622 20.633 12.7171 21.1216C13.3721 21.6102 14.1745 21.875 15 21.875C15.8255 21.875 16.6279 21.6102 17.2829 21.1216C17.9378 20.633 18.4086 19.948 18.6222 19.1728" stroke="#FDFAFA" stroke-linecap="round"/>
</svg>
