<svg width="27" height="26" viewBox="0 0 27 26" fill="none" xmlns="http://www.w3.org/2000/svg">
<path d="M3.375 13C3.375 7.61522 7.74022 3.25 13.125 3.25H13.875C19.2598 3.25 23.625 7.61522 23.625 13C23.625 18.3848 19.2598 22.75 13.875 22.75H13.125C7.74022 22.75 3.375 18.3848 3.375 13Z" fill="#7E869E" fill-opacity="0.25"/>
<ellipse cx="13.5" cy="10.8333" rx="4.5" ry="4.33333" fill="#FFFDFD"/>
<path fill-rule="evenodd" clip-rule="evenodd" d="M20.549 19.8485C20.6079 19.9458 20.5895 20.0706 20.5061 20.148C18.7663 21.7627 16.436 22.75 13.8751 22.75H13.1251C10.5643 22.75 8.23408 21.7627 6.49427 20.1481C6.41089 20.0707 6.39245 19.9459 6.45136 19.8486C7.74286 17.7151 10.4142 16.25 13.5002 16.25C16.5861 16.25 19.2575 17.7151 20.549 19.8485Z" fill="#FBF8F8"/>
</svg>
